<svg xmlns="http://www.w3.org/2000/svg" version="1.1" xmlns:xlink="http://www.w3.org/1999/xlink" viewBox="0 0 200 200"><rect width="200" height="200" fill="url('#gradient')"></rect><defs><linearGradient id="gradient" gradientTransform="rotate(0 0.5 0.5)"><stop offset="0%" stop-color="#ffffff"></stop><stop offset="100%" stop-color="#ffffff"></stop></linearGradient></defs><g><g fill="#000000" transform="matrix(2.976613080819203,0,0,2.976613080819203,30.806560028216253,121.16309426853086)" stroke="#ffffff" stroke-width="0.2"><path d="M1.07-14.22L5.58-14.22L8.75-4.33L11.91-14.22L16.43-14.22L16.43 0L12.99 0L12.99-3.32L13.32-10.12L9.88 0L7.62 0L4.17-10.13L4.50-3.32L4.50 0L1.07 0L1.07-14.22ZM30.49-14.22L30.49 0L27.08 0L27.08-5.94L22.03-5.94L22.03 0L18.60 0L18.60-14.22L22.03-14.22L22.03-8.57L27.08-8.57L27.08-14.22L30.49-14.22ZM41.74 0L40.91-2.66L36.21-2.66L35.39 0L31.73 0L36.94-14.22L40.17-14.22L45.42 0L41.74 0ZM38.55-10.23L37.03-5.30L40.09-5.30L38.55-10.23Z"></path></g></g></svg>